<mxfile host="app.diagrams.net" agent="Mozilla/5.0 (Windows NT 10.0; Win64; x64) AppleWebKit/537.36 (KHTML, like Gecko) Chrome/128.0.0.0 Safari/537.36 OPR/114.0.0.0" version="24.7.16">
  <diagram id="C5RBs43oDa-KdzZeNtuy" name="Page-1">
    <mxGraphModel dx="972" dy="556" grid="1" gridSize="10" guides="1" tooltips="1" connect="1" arrows="1" fold="1" page="1" pageScale="1" pageWidth="827" pageHeight="1169" math="0" shadow="0">
      <root>
        <mxCell id="WIyWlLk6GJQsqaUBKTNV-0" />
        <mxCell id="WIyWlLk6GJQsqaUBKTNV-1" parent="WIyWlLk6GJQsqaUBKTNV-0" />
        <mxCell id="euCizMwzHCiwbRxTyyDE-6" style="edgeStyle=orthogonalEdgeStyle;rounded=0;orthogonalLoop=1;jettySize=auto;html=1;exitX=0.25;exitY=1;exitDx=0;exitDy=0;" edge="1" parent="WIyWlLk6GJQsqaUBKTNV-1" source="euCizMwzHCiwbRxTyyDE-0" target="euCizMwzHCiwbRxTyyDE-5">
          <mxGeometry relative="1" as="geometry" />
        </mxCell>
        <mxCell id="euCizMwzHCiwbRxTyyDE-9" value="" style="edgeStyle=orthogonalEdgeStyle;rounded=0;orthogonalLoop=1;jettySize=auto;html=1;" edge="1" parent="WIyWlLk6GJQsqaUBKTNV-1" source="euCizMwzHCiwbRxTyyDE-0" target="euCizMwzHCiwbRxTyyDE-7">
          <mxGeometry relative="1" as="geometry" />
        </mxCell>
        <mxCell id="euCizMwzHCiwbRxTyyDE-10" style="edgeStyle=orthogonalEdgeStyle;rounded=0;orthogonalLoop=1;jettySize=auto;html=1;exitX=0.75;exitY=1;exitDx=0;exitDy=0;entryX=0;entryY=0;entryDx=0;entryDy=0;" edge="1" parent="WIyWlLk6GJQsqaUBKTNV-1" source="euCizMwzHCiwbRxTyyDE-0" target="euCizMwzHCiwbRxTyyDE-8">
          <mxGeometry relative="1" as="geometry" />
        </mxCell>
        <mxCell id="euCizMwzHCiwbRxTyyDE-13" style="edgeStyle=orthogonalEdgeStyle;rounded=0;orthogonalLoop=1;jettySize=auto;html=1;exitX=0.5;exitY=0;exitDx=0;exitDy=0;entryX=0.5;entryY=1;entryDx=0;entryDy=0;" edge="1" parent="WIyWlLk6GJQsqaUBKTNV-1" source="euCizMwzHCiwbRxTyyDE-0" target="euCizMwzHCiwbRxTyyDE-12">
          <mxGeometry relative="1" as="geometry" />
        </mxCell>
        <mxCell id="euCizMwzHCiwbRxTyyDE-14" value="M: 1" style="edgeLabel;html=1;align=center;verticalAlign=middle;resizable=0;points=[];" vertex="1" connectable="0" parent="euCizMwzHCiwbRxTyyDE-13">
          <mxGeometry x="-0.0921" y="-3" relative="1" as="geometry">
            <mxPoint x="2" y="2" as="offset" />
          </mxGeometry>
        </mxCell>
        <mxCell id="euCizMwzHCiwbRxTyyDE-0" value="users" style="rounded=0;whiteSpace=wrap;html=1;" vertex="1" parent="WIyWlLk6GJQsqaUBKTNV-1">
          <mxGeometry x="370" y="270" width="80" height="30" as="geometry" />
        </mxCell>
        <mxCell id="euCizMwzHCiwbRxTyyDE-27" style="edgeStyle=orthogonalEdgeStyle;rounded=0;orthogonalLoop=1;jettySize=auto;html=1;" edge="1" parent="WIyWlLk6GJQsqaUBKTNV-1" source="euCizMwzHCiwbRxTyyDE-1" target="euCizMwzHCiwbRxTyyDE-25">
          <mxGeometry relative="1" as="geometry">
            <mxPoint x="290" y="60" as="targetPoint" />
          </mxGeometry>
        </mxCell>
        <mxCell id="euCizMwzHCiwbRxTyyDE-28" style="edgeStyle=orthogonalEdgeStyle;rounded=0;orthogonalLoop=1;jettySize=auto;html=1;exitX=1;exitY=0.5;exitDx=0;exitDy=0;entryX=0;entryY=0.5;entryDx=0;entryDy=0;" edge="1" parent="WIyWlLk6GJQsqaUBKTNV-1" source="euCizMwzHCiwbRxTyyDE-1" target="euCizMwzHCiwbRxTyyDE-26">
          <mxGeometry relative="1" as="geometry" />
        </mxCell>
        <mxCell id="euCizMwzHCiwbRxTyyDE-1" value="schedules" style="rounded=0;whiteSpace=wrap;html=1;" vertex="1" parent="WIyWlLk6GJQsqaUBKTNV-1">
          <mxGeometry x="370" y="60" width="80" height="40" as="geometry" />
        </mxCell>
        <mxCell id="euCizMwzHCiwbRxTyyDE-22" style="edgeStyle=orthogonalEdgeStyle;rounded=0;orthogonalLoop=1;jettySize=auto;html=1;exitX=0.25;exitY=1;exitDx=0;exitDy=0;" edge="1" parent="WIyWlLk6GJQsqaUBKTNV-1" source="euCizMwzHCiwbRxTyyDE-2" target="euCizMwzHCiwbRxTyyDE-21">
          <mxGeometry relative="1" as="geometry" />
        </mxCell>
        <mxCell id="euCizMwzHCiwbRxTyyDE-24" style="edgeStyle=orthogonalEdgeStyle;rounded=0;orthogonalLoop=1;jettySize=auto;html=1;exitX=1;exitY=1;exitDx=0;exitDy=0;entryX=0.5;entryY=0;entryDx=0;entryDy=0;" edge="1" parent="WIyWlLk6GJQsqaUBKTNV-1" source="euCizMwzHCiwbRxTyyDE-2" target="euCizMwzHCiwbRxTyyDE-23">
          <mxGeometry relative="1" as="geometry" />
        </mxCell>
        <mxCell id="euCizMwzHCiwbRxTyyDE-2" value="meals" style="rounded=0;whiteSpace=wrap;html=1;" vertex="1" parent="WIyWlLk6GJQsqaUBKTNV-1">
          <mxGeometry x="590" y="230" width="80" height="40" as="geometry" />
        </mxCell>
        <mxCell id="euCizMwzHCiwbRxTyyDE-30" style="edgeStyle=orthogonalEdgeStyle;rounded=0;orthogonalLoop=1;jettySize=auto;html=1;exitX=0;exitY=0;exitDx=0;exitDy=0;" edge="1" parent="WIyWlLk6GJQsqaUBKTNV-1" source="euCizMwzHCiwbRxTyyDE-3" target="euCizMwzHCiwbRxTyyDE-29">
          <mxGeometry relative="1" as="geometry" />
        </mxCell>
        <mxCell id="euCizMwzHCiwbRxTyyDE-37" style="edgeStyle=orthogonalEdgeStyle;rounded=0;orthogonalLoop=1;jettySize=auto;html=1;exitX=0.5;exitY=1;exitDx=0;exitDy=0;" edge="1" parent="WIyWlLk6GJQsqaUBKTNV-1" source="euCizMwzHCiwbRxTyyDE-3" target="euCizMwzHCiwbRxTyyDE-33">
          <mxGeometry relative="1" as="geometry" />
        </mxCell>
        <mxCell id="euCizMwzHCiwbRxTyyDE-3" value="children" style="rounded=0;whiteSpace=wrap;html=1;" vertex="1" parent="WIyWlLk6GJQsqaUBKTNV-1">
          <mxGeometry x="130" y="220" width="80" height="40" as="geometry" />
        </mxCell>
        <mxCell id="euCizMwzHCiwbRxTyyDE-4" style="edgeStyle=orthogonalEdgeStyle;rounded=0;orthogonalLoop=1;jettySize=auto;html=1;exitX=0;exitY=0.25;exitDx=0;exitDy=0;entryX=0;entryY=0.5;entryDx=0;entryDy=0;" edge="1" parent="WIyWlLk6GJQsqaUBKTNV-1" source="euCizMwzHCiwbRxTyyDE-0" target="euCizMwzHCiwbRxTyyDE-0">
          <mxGeometry relative="1" as="geometry" />
        </mxCell>
        <mxCell id="euCizMwzHCiwbRxTyyDE-5" value="user_id" style="ellipse;whiteSpace=wrap;html=1;aspect=fixed;" vertex="1" parent="WIyWlLk6GJQsqaUBKTNV-1">
          <mxGeometry x="310" y="370" width="50" height="50" as="geometry" />
        </mxCell>
        <mxCell id="euCizMwzHCiwbRxTyyDE-7" value="name" style="ellipse;whiteSpace=wrap;html=1;aspect=fixed;" vertex="1" parent="WIyWlLk6GJQsqaUBKTNV-1">
          <mxGeometry x="380" y="370" width="50" height="50" as="geometry" />
        </mxCell>
        <mxCell id="euCizMwzHCiwbRxTyyDE-8" value="date_of&lt;div&gt;_birth&lt;/div&gt;" style="ellipse;whiteSpace=wrap;html=1;aspect=fixed;" vertex="1" parent="WIyWlLk6GJQsqaUBKTNV-1">
          <mxGeometry x="450" y="370" width="50" height="50" as="geometry" />
        </mxCell>
        <mxCell id="euCizMwzHCiwbRxTyyDE-15" style="edgeStyle=orthogonalEdgeStyle;rounded=0;orthogonalLoop=1;jettySize=auto;html=1;exitX=0;exitY=0.5;exitDx=0;exitDy=0;entryX=1;entryY=0.5;entryDx=0;entryDy=0;" edge="1" parent="WIyWlLk6GJQsqaUBKTNV-1" source="euCizMwzHCiwbRxTyyDE-12" target="euCizMwzHCiwbRxTyyDE-3">
          <mxGeometry relative="1" as="geometry" />
        </mxCell>
        <mxCell id="euCizMwzHCiwbRxTyyDE-18" value="M:1" style="edgeLabel;html=1;align=center;verticalAlign=middle;resizable=0;points=[];" vertex="1" connectable="0" parent="euCizMwzHCiwbRxTyyDE-15">
          <mxGeometry x="-0.0776" y="2" relative="1" as="geometry">
            <mxPoint as="offset" />
          </mxGeometry>
        </mxCell>
        <mxCell id="euCizMwzHCiwbRxTyyDE-16" style="edgeStyle=orthogonalEdgeStyle;rounded=0;orthogonalLoop=1;jettySize=auto;html=1;exitX=0.5;exitY=0;exitDx=0;exitDy=0;entryX=0.5;entryY=1;entryDx=0;entryDy=0;" edge="1" parent="WIyWlLk6GJQsqaUBKTNV-1" source="euCizMwzHCiwbRxTyyDE-12" target="euCizMwzHCiwbRxTyyDE-1">
          <mxGeometry relative="1" as="geometry">
            <mxPoint x="404.47058823529414" y="110" as="targetPoint" />
            <Array as="points">
              <mxPoint x="405" y="130" />
              <mxPoint x="410" y="130" />
            </Array>
          </mxGeometry>
        </mxCell>
        <mxCell id="euCizMwzHCiwbRxTyyDE-19" value="M:1" style="edgeLabel;html=1;align=center;verticalAlign=middle;resizable=0;points=[];" vertex="1" connectable="0" parent="euCizMwzHCiwbRxTyyDE-16">
          <mxGeometry x="-0.0021" y="2" relative="1" as="geometry">
            <mxPoint as="offset" />
          </mxGeometry>
        </mxCell>
        <mxCell id="euCizMwzHCiwbRxTyyDE-17" style="edgeStyle=orthogonalEdgeStyle;rounded=0;orthogonalLoop=1;jettySize=auto;html=1;" edge="1" parent="WIyWlLk6GJQsqaUBKTNV-1" source="euCizMwzHCiwbRxTyyDE-12" target="euCizMwzHCiwbRxTyyDE-2">
          <mxGeometry relative="1" as="geometry" />
        </mxCell>
        <mxCell id="euCizMwzHCiwbRxTyyDE-20" value="M:1" style="edgeLabel;html=1;align=center;verticalAlign=middle;resizable=0;points=[];" vertex="1" connectable="0" parent="euCizMwzHCiwbRxTyyDE-17">
          <mxGeometry x="0.6523" y="2" relative="1" as="geometry">
            <mxPoint as="offset" />
          </mxGeometry>
        </mxCell>
        <mxCell id="euCizMwzHCiwbRxTyyDE-12" value="mencatat" style="rhombus;whiteSpace=wrap;html=1;" vertex="1" parent="WIyWlLk6GJQsqaUBKTNV-1">
          <mxGeometry x="372.5" y="150" width="65" height="70" as="geometry" />
        </mxCell>
        <mxCell id="euCizMwzHCiwbRxTyyDE-21" value="category" style="ellipse;whiteSpace=wrap;html=1;aspect=fixed;" vertex="1" parent="WIyWlLk6GJQsqaUBKTNV-1">
          <mxGeometry x="630" y="320" width="50" height="50" as="geometry" />
        </mxCell>
        <mxCell id="euCizMwzHCiwbRxTyyDE-23" value="meal" style="ellipse;whiteSpace=wrap;html=1;aspect=fixed;" vertex="1" parent="WIyWlLk6GJQsqaUBKTNV-1">
          <mxGeometry x="700" y="290" width="50" height="50" as="geometry" />
        </mxCell>
        <mxCell id="euCizMwzHCiwbRxTyyDE-25" value="watch" style="ellipse;whiteSpace=wrap;html=1;aspect=fixed;" vertex="1" parent="WIyWlLk6GJQsqaUBKTNV-1">
          <mxGeometry x="270" y="10" width="50" height="50" as="geometry" />
        </mxCell>
        <mxCell id="euCizMwzHCiwbRxTyyDE-26" value="workout" style="ellipse;whiteSpace=wrap;html=1;aspect=fixed;" vertex="1" parent="WIyWlLk6GJQsqaUBKTNV-1">
          <mxGeometry x="490" y="10" width="50" height="50" as="geometry" />
        </mxCell>
        <mxCell id="euCizMwzHCiwbRxTyyDE-29" value="name" style="ellipse;whiteSpace=wrap;html=1;aspect=fixed;" vertex="1" parent="WIyWlLk6GJQsqaUBKTNV-1">
          <mxGeometry x="40" y="140" width="50" height="50" as="geometry" />
        </mxCell>
        <mxCell id="euCizMwzHCiwbRxTyyDE-31" value="child_id" style="ellipse;whiteSpace=wrap;html=1;aspect=fixed;" vertex="1" parent="WIyWlLk6GJQsqaUBKTNV-1">
          <mxGeometry x="10" y="250" width="40" height="40" as="geometry" />
        </mxCell>
        <mxCell id="euCizMwzHCiwbRxTyyDE-33" value="date_of&lt;div&gt;_birth&lt;/div&gt;" style="ellipse;whiteSpace=wrap;html=1;aspect=fixed;" vertex="1" parent="WIyWlLk6GJQsqaUBKTNV-1">
          <mxGeometry x="30" y="340" width="50" height="50" as="geometry" />
        </mxCell>
        <mxCell id="euCizMwzHCiwbRxTyyDE-36" style="edgeStyle=orthogonalEdgeStyle;rounded=0;orthogonalLoop=1;jettySize=auto;html=1;entryX=0.151;entryY=0.953;entryDx=0;entryDy=0;entryPerimeter=0;" edge="1" parent="WIyWlLk6GJQsqaUBKTNV-1" source="euCizMwzHCiwbRxTyyDE-31" target="euCizMwzHCiwbRxTyyDE-3">
          <mxGeometry relative="1" as="geometry" />
        </mxCell>
      </root>
    </mxGraphModel>
  </diagram>
</mxfile>
